# xmcd CD database file
#
# Track frame offsets:
#	150
#	3905
#	17433
#	35318
#	37702
#	56764
#	75407
#	77475
#	92999
#	111920
#	126980
#	130876
#	147184
#	162269
#	174412
#	195369
#	206937
#	221323
#	245309
#	260692
#	280871
#	298358
#	309715
#
# Disc length: 4433 seconds
#
# Revision: 0
# Processed by: cddbd v1.5.2PL0 Copyright (c) Steve Scherf et al.
# Submitted via: CDex 1.51
#
DISCID=3e114f17
DTITLE=Carll Hayes - TX Crawfish Music Festival April 28, 2006
DYEAR=2006
DGENRE=Country
TTITLE0=Intro
TTITLE1=Hey Baby where you been
TTITLE2=Chickens
TTITLE3=Banter (Hayes talks to his son)
TTITLE4=It's A Shame
TTITLE5=Magnolia Wind
TTITLE6=Banter (1sts)
TTITLE7=Little Rock
TTITLE8=Rivertown
TTITLE9=Highway 87
TTITLE10=Banter (Band Intro)
TTITLE11=Take Me Away
TTITLE12=Flowers and Liquor (as soon as i learn your name - false start)
TTITLE13=I've Been Everywhere
TTITLE14=Wish I Hadn't Stayed So Long
TTITLE15=Sit In With The Band
TTITLE16=Good Friends
TTITLE17=Arkansas Blues
TTITLE18=Naked Checkers
TTITLE19=Ain't Enough of Me To Go Around
TTITLE20=Long Way Home
TTITLE21=Leave Here Standing
TTITLE22=Down the Road Tonight
EXTD=YEAR: 2006
EXTT0=
EXTT1=
EXTT2=
EXTT3=
EXTT4=
EXTT5=
EXTT6=
EXTT7=
EXTT8=
EXTT9=
EXTT10=
EXTT11=
EXTT12=
EXTT13=
EXTT14=
EXTT15=
EXTT16=
EXTT17=
EXTT18=
EXTT19=
EXTT20=
EXTT21=
EXTT22=
PLAYORDER=
